<svg xmlns="http://www.w3.org/2000/svg">
  <symbol id="tree-1" viewBox="0 0 64 64">
    <path d="M32 4 20 22h8L16 39h11L14 55h36L37 39h11L36 22h8Z" fill="#2F302B"/>
    <path d="M29 54h6v8h-6z" fill="#2F302B"/>
  </symbol>
  <symbol id="tree-2" viewBox="0 0 64 64">
    <path d="M31 5 18 25h9L15 43h12L18 57h29L37 43h12L36 25h9Z" fill="#2F302B"/>
    <path d="M28 55h7v7h-7z" fill="#2F302B"/>
  </symbol>
  <symbol id="tree-3" viewBox="0 0 64 64">
    <path d="M34 3 23 20h7L19 35h9L16 51h34L39 35h9L38 20h7Z" fill="#2F302B"/>
    <path d="M30 50h7v12h-7z" fill="#2F302B"/>
  </symbol>
  <symbol id="tree-4" viewBox="0 0 64 64">
    <path d="M30 7 17 28h10L14 47h12L20 57h27L38 47h12L37 28h10Z" fill="#2F302B"/>
    <path d="M27 55h7v7h-7z" fill="#2F302B"/>
  </symbol>
  <symbol id="tree-5" viewBox="0 0 64 64">
    <path d="M33 6 24 18h6L20 32h8L17 47h12L22 58h24l-8-11h11L39 32h8L37 18h6Z" fill="#2F302B"/>
    <path d="M30 56h6v6h-6z" fill="#2F302B"/>
  </symbol>
</svg>
